#!OML:ASF I:\golf\golf\golf 2\Subject 1\2002-09-07\Subject1.ASF
:FULLY-SPECIFIED
:DEGREES
412
root 1.74629 15.0136 -3.47362 25.6835 -1.44479 -4.41046
lowerback 34.6718 8.78722 0.119054
upperback 12.4313 11.0855 5.31696
thorax -4.67593 5.07459 1.66145
lowerneck -6.88826 -6.75622 -1.01886
upperneck 16.2998 -7.67646 -7.55325
head 5.79609 -4.24356 -2.72418
rclavicle -2.54444e-014 3.97569e-014
rhumerus 22.1752 5.4695 -69.6151
rradius 29.6654
rwrist -10.3847
rhand -22.3372 9.06472
rfingers 7.12502
rthumb 4.08318 -20.8759
lclavicle -2.54444e-014 3.97569e-014
lhumerus -21.3192 -47.1153 94.483
lradius 87.4942
lwrist 1.65536
lhand -28.1101 17.5498
lfingers 7.12502
lthumb -1.4922 47.5243
rfemur -72.2013 -31.6805 40.9654
rtibia 90.5524
rfoot -22.9977 -1.03065
rtoes -10.669
lfemur -78.0383 7.11683 -21.3845
ltibia 78.341
lfoot -19.1605 -7.65691
ltoes -2.48582
413
root 1.74618 15.1317 -3.46524 25.7466 -1.55304 -4.38251
lowerback 34.1355 8.74856 -0.319353
upperback 12.4463 10.9164 5.3555
thorax -4.54414 4.9942 2.02688
lowerneck -7.23688 -6.60597 -1.43986
upperneck 16.3794 -7.45547 -7.23113
head 5.92229 -4.14767 -2.56204
rclavicle 6.36111e-015 -1.98785e-014
rhumerus 21.6403 6.97856 -69.1952
rradius 30.1214
rwrist -9.95657
rhand -22.7689 9.54788
rfingers 7.12502
rthumb 3.66628 -20.4003
lclavicle 6.36111e-015 -1.98785e-014
lhumerus -21.008 -46.6318 94.4646
lradius 86.472
lwrist 1.90892
lhand -28.2748 17.4349
lfingers 7.12502
lthumb -1.65131 47.4083
rfemur -71.4062 -31.3569 40.7376
rtibia 89.2199
rfoot -22.6465 -1.05667
rtoes -10.3825
lfemur -77.2103 7.18575 -21.4143
ltibia 76.9636
lfoot -18.6883 -7.72047
ltoes -2.35505
414
root 1.74474 15.2486 -3.46098 25.8506 -1.66538 -4.25684
lowerback 33.5671 8.67376 -0.861782
upperback 12.4561 10.6757 5.36394
thorax -4.4074 4.87809 2.44207
lowerneck -7.69277 -6.40976 -1.87101
upperneck 16.4384 -7.16022 -6.95094
head 6.05997 -4.02143 -2.40847
rclavicle 8.42847e-014 3.97569e-015
rhumerus 21.156 8.4493 -68.9135
rradius 30.6327
rwrist -9.62398
rhand -22.9712 9.82652
rfingers 7.12502
rthumb 3.47087 -20.125
lclavicle 8.42847e-014 3.97569e-015
lhumerus -20.5443 -46.0005 94.3184
lradius 85.0432
lwrist 1.79856
lhand -28.533 15.8137
lfingers 7.12502
lthumb -1.90069 45.785
rfemur -70.7418 -31.0637 40.466
rtibia 87.9279
rfoot -22.2204 -1.07187
rtoes -9.98588
lfemur -76.4445 7.18779 -21.5339
ltibia 75.5907
lfoot -18.1943 -7.74824
ltoes -2.22946
415
root 1.74274 15.3664 -3.45874 25.8804 -1.72852 -4.16791
lowerback 33.0869 8.55533 -1.3221
upperback 12.466 10.4096 5.37601
thorax -4.28193 4.7492 2.82195
lowerneck -8.07854 -6.16233 -2.02503
upperneck 16.2329 -6.78937 -7.06368
head 6.0753 -3.86771 -2.40309
rclavicle -5.88403e-014 -2.70347e-014
rhumerus 20.7144 10.0461 -68.6256
rradius 31.0577
rwrist -9.31887
rhand -23.964 10.5049
rfingers 7.12502
rthumb 2.51216 -19.4601
lclavicle -5.88403e-014 -2.70347e-014
lhumerus -19.9693 -45.3992 94.1472
lradius 83.6673
lwrist 1.63648
lhand -28.4665 15.2762
lfingers 7.12502
lthumb -1.83646 45.2481
rfemur -70.0221 -30.851 40.2378
rtibia 86.6477
rfoot -21.7152 -1.14321
rtoes -10.1463
lfemur -75.609 7.11802 -21.5409
ltibia 74.2479
lfoot -17.7138 -7.72223
ltoes -2.512
416
root 1.73899 15.4773 -3.45545 25.8851 -1.80985 -4.27491
lowerback 32.21 8.44539 -1.69399
upperback 12.7854 10.2073 5.33264
thorax -4.10093 4.66813 3.33631
lowerneck -8.39033 -5.9328 -2.14433
upperneck 15.9854 -6.44679 -7.20647
head 6.06118 -3.72537 -2.40958
rclavicle 3.81667e-014 -1.51076e-014
rhumerus 20.2482 11.6838 -68.3575
rradius 31.4637
rwrist -9.16274
rhand -25.3522 11.6432
rfingers 7.12502
rthumb 1.17137 -18.3333
lclavicle 3.81667e-014 -1.51076e-014
lhumerus -19.4342 -44.8446 94.0403
lradius 82.6219
lwrist 1.63555
lhand -27.9212 16.3099
lfingers 7.12502
lthumb -1.3098 46.2857
rfemur -69.2332 -30.5314 40.1601
rtibia 85.4104
rfoot -21.23 -1.17654
rtoes -10.1163
lfemur -74.7983 7.21224 -21.3829
ltibia 72.9863
lfoot -17.2899 -7.70114
ltoes -3.29685
